<!-- ChatGPT-compatible logo: 256x256 SVG, under 10 KB. Derived from the user-provided logo. -->
<svg xmlns="http://www.w3.org/2000/svg" width="256" height="256" viewBox="0 0 128 128"><path fill="#ffffff" fill-rule="evenodd" d="M104,72 L107,82 L107,99 L105,104 L108,86Z"/><path fill="#fefefe" fill-rule="evenodd" d="M59,4 L59,23 L50,38 L37,51 L38,53 L32,67 L32,84 L27,87 L22,82 L22,104 L24,104 L25,111 L36,123 L37,112 L42,104 L43,106 L42,104 L48,96 L51,95 L60,78 L58,73 L63,69 L72,79 L73,85 L75,85 L77,99 L81,97 L84,100 L84,104 L86,104 L86,108 L88,108 L87,110 L89,110 L88,112 L91,115 L91,123 L101,109 L104,108 L102,108 L105,99 L103,71 L101,71 L98,66 L99,64 L94,59 L91,45 L82,53 L78,50 L78,44 L80,44 L79,23 L77,23 L74,14 L65,6Z"/><path fill="#fcfcfc" fill-rule="evenodd" d="M59,79 L56,88 L41,106 L36,124 L29,117 L24,107 L23,109 L25,109 L24,111 L26,111 L27,116 L38,127 L38,112 L40,112 L39,110 L41,110 L42,105 L59,85ZM106,77 L105,103 L102,111 L91,124 L90,115 L83,100 L84,106 L86,106 L87,112 L89,112 L88,116 L90,116 L89,127 L100,116 L102,109 L104,109 L103,107 L105,107 L105,100 L107,100ZM62,70 L70,78 L71,83 L73,83 L72,85 L74,85 L74,100 L81,98 L76,99 L74,85 L69,76ZM98,61 L104,76 L105,74 L103,74ZM81,52 L91,44 L94,56 L95,54 L93,54 L92,44 L89,44ZM65,5 L58,3 L58,23 L56,23 L55,29 L39,47 L34,55 L34,59 L32,59 L32,66 L30,66 L31,84 L31,67 L34,57 L58,23 L58,4 L70,10 L78,23 L79,21 L77,21 L78,19 L76,19 L75,14Z"/><path fill="#020202" fill-rule="evenodd" d="M48,104 L46,104 L42,114ZM79,102 L84,110 L80,104 L81,102ZM64,77 L64,80 L65,78 L69,84 L70,91 L72,91ZM61,0 L68,4 L82,21 L84,44 L90,42 L84,43 L84,27 L79,15 L72,7Z"/><path fill="#000000" fill-rule="evenodd" d="M107,107 L107,111 L104,112 L106,112 L105,115 L101,117 L103,118 L92,127 L108,127ZM20,107 L19,127 L36,127 L24,118 L26,117 L22,115 L21,112 L23,112ZM63,74 L61,89 L47,103 L49,104 L44,107 L46,107 L44,113 L41,114 L41,126 L42,122 L43,127 L84,127 L84,123 L86,123 L86,126 L87,122 L86,115 L84,117 L86,113 L83,113 L80,106 L82,105 L78,102 L80,101 L74,106 L72,105 L72,92 L72,105 L70,105 L69,87 L71,87 L71,90 L66,81 L67,79 L63,80 L63,76 L66,77ZM58,0 L66,4 L68,3 L80,15 L82,19 L80,20 L84,23 L84,46 L82,49 L87,43 L94,40 L96,42 L96,52 L97,41 L97,55 L98,53 L100,57 L98,58 L105,67 L103,67 L106,68 L106,72 L108,72 L108,0ZM84,26 L86,44 L84,46ZM70,7 L72,6 L77,12ZM55,0 L19,0 L19,79 L20,76 L23,76 L28,83 L27,70 L29,64 L27,62 L30,61 L31,58 L29,57 L34,52 L32,51 L37,48 L35,50 L34,48 L41,43 L37,45 L47,36 L44,37 L49,33 L47,32 L51,30 L49,29 L54,24 L52,22 L55,22ZM26,69 L26,81 L24,79Z"/></svg>